<svg width="56" height="70" viewBox="0 0 56 70" fill="none" xmlns="http://www.w3.org/2000/svg">
<path d="M28 3.50512e-08C20.6222 -0.000368864 13.5424 2.91116 8.29935 8.10177C3.05631 13.2924 0.073778 20.3426 0 27.72C0 46.9 24.675 68.25 25.725 69.16C26.359 69.7023 27.1658 70.0002 28 70.0002C28.8342 70.0002 29.641 69.7023 30.275 69.16C31.5 68.25 56 46.9 56 27.72C55.9262 20.3426 52.9437 13.2924 47.7007 8.10177C42.4576 2.91116 35.3778 -0.000368864 28 3.50512e-08ZM28 61.775C22.155 56.21 7 40.775 7 27.72C7 22.1505 9.21249 16.809 13.1508 12.8708C17.089 8.93249 22.4305 6.72 28 6.72C33.5695 6.72 38.911 8.93249 42.8492 12.8708C46.7875 16.809 49 22.1505 49 27.72C49 40.67 33.845 56.21 28 61.775Z" fill="url(#paint0_linear_63_34)" fill-opacity="0.96"/>
<defs>
<linearGradient id="paint0_linear_63_34" x1="28" y1="0" x2="28" y2="70.0002" gradientUnits="userSpaceOnUse">
<stop stop-color="#27213A"/>
<stop offset="0.494792" stop-color="#27213A" stop-opacity="0.71"/>
<stop offset="1" stop-color="#27213A"/>
</linearGradient>
</defs>
</svg>
