<svg width="70" height="56" viewBox="0 0 70 56" fill="none" xmlns="http://www.w3.org/2000/svg">
<path d="M59.5 0H10.5C7.71523 0 5.04451 1.10625 3.07538 3.07538C1.10625 5.04451 0 7.71523 0 10.5V45.5C0 48.2848 1.10625 50.9555 3.07538 52.9246C5.04451 54.8938 7.71523 56 10.5 56H59.5C62.2848 56 64.9555 54.8938 66.9246 52.9246C68.8937 50.9555 70 48.2848 70 45.5V10.5C70 7.71523 68.8937 5.04451 66.9246 3.07538C64.9555 1.10625 62.2848 0 59.5 0ZM57.155 7L35 23.625L12.845 7H57.155ZM59.5 49H10.5C9.57174 49 8.6815 48.6313 8.02513 47.9749C7.36875 47.3185 7 46.4283 7 45.5V11.375L32.9 30.8C33.5058 31.2544 34.2427 31.5 35 31.5C35.7573 31.5 36.4942 31.2544 37.1 30.8L63 11.375V45.5C63 46.4283 62.6312 47.3185 61.9749 47.9749C61.3185 48.6313 60.4282 49 59.5 49Z" fill="url(#paint0_linear_63_25)" fill-opacity="0.96"/>
<defs>
<linearGradient id="paint0_linear_63_25" x1="35" y1="0" x2="35" y2="56" gradientUnits="userSpaceOnUse">
<stop stop-color="#27213A"/>
<stop offset="0.494792" stop-color="#27213A" stop-opacity="0.71"/>
<stop offset="1" stop-color="#27213A"/>
</linearGradient>
</defs>
</svg>
