<svg width="103" height="99" viewBox="0 0 103 99" fill="none" xmlns="http://www.w3.org/2000/svg">
<path d="M50.8575 98.6133C50.6717 98.5552 50.3886 98.469 50.2284 98.4219C50.0018 98.3551 49.9945 98.2357 50.1954 97.8836C50.5238 97.3078 50.1775 97.07 49.0038 97.0655C48.3006 97.0625 48.1411 97.146 48.0263 97.5751C47.868 98.1667 47.6625 98.2613 46.5817 98.2398C45.5861 98.22 45.4673 97.78 46.2324 96.9454C46.5463 96.603 46.8033 96.212 46.8034 96.0764C46.8036 95.9408 46.8841 95.7982 46.9825 95.7595C47.2211 95.6655 48.1549 93.5898 48.1549 93.1534C48.1549 92.8893 48.2736 92.846 48.6617 92.9684C48.9404 93.0563 49.608 93.134 50.1452 93.1411C51.1107 93.1538 51.1283 93.1675 51.6563 94.3159C51.9502 94.9549 52.1947 95.6442 52.1997 95.8475C52.2048 96.0509 52.31 96.2172 52.4339 96.2172C52.5578 96.2172 52.6614 96.3361 52.6641 96.4813C52.6667 96.6265 52.8673 96.983 53.1095 97.2735C53.7937 98.0941 53.6845 98.4665 52.7154 98.6168C51.7565 98.7654 51.3413 98.7647 50.8574 98.6132L50.8575 98.6133ZM53.8796 97.7545C53.5454 97.4409 53.4368 96.6389 53.7289 96.6409C53.8218 96.6415 54.2845 96.7428 54.7571 96.8659C56.1088 97.218 57.7519 96.6839 56.544 96.2851C55.5529 95.9579 54.1284 95.3018 53.8579 95.0481C53.4373 94.6535 53.4672 93.4708 53.8978 93.4708C54.0836 93.4708 54.2356 93.3341 54.2356 93.1669C54.2356 92.8066 55.658 92.5619 57.1633 92.6632C58.0225 92.7211 58.1879 92.8052 58.25 93.2162C58.3203 93.6808 58.2772 93.6951 57.2091 93.5622C56.4634 93.4694 56.0418 93.5043 55.9341 93.6677C55.7186 93.9949 56.2151 94.5272 56.7359 94.5272C57.6193 94.5272 58.9674 95.2021 59.1041 95.7128C59.3539 96.6464 59.0268 97.1998 57.9424 97.6779C56.7392 98.2084 54.4103 98.2523 53.8796 97.7545H53.8796ZM43.6387 97.4305C43.2154 97.1629 42.7573 96.7336 42.6206 96.4764C42.484 96.2193 42.2038 95.8344 41.998 95.6211C41.7923 95.4078 41.6239 95.1367 41.6239 95.0186C41.6239 94.9005 41.4375 94.6457 41.2098 94.4523C40.8164 94.1184 40.7825 94.1418 40.5341 94.9194C40.3903 95.3697 40.2727 96.001 40.2727 96.3224C40.2727 96.884 40.2371 96.9022 39.3532 96.791C38.8475 96.7273 38.3883 96.6326 38.3328 96.5805C38.2772 96.5283 38.375 96.2114 38.55 95.8761C39.4488 94.1547 39.9196 91.5695 39.3343 91.5695C39.1898 91.5695 39.1336 91.5112 39.2095 91.4401C39.4668 91.1987 41.6551 91.822 41.7912 92.1754C41.8642 92.365 42.2112 92.8666 42.5622 93.29C42.9132 93.7134 43.2004 94.1502 43.2004 94.2607C43.2004 94.3712 43.3866 94.6197 43.6142 94.8129C44.007 95.1464 44.0427 95.1222 44.3192 94.3363C44.4794 93.881 44.5447 93.2623 44.4642 92.9615C44.296 92.3329 44.3022 92.3312 45.5389 92.6639C46.7237 92.9826 46.7176 92.9765 46.286 93.4239C46.0853 93.6319 45.6813 94.6965 45.3882 95.7896C45.0951 96.8828 44.7547 97.8086 44.6318 97.8471C44.5088 97.8855 44.0619 97.698 43.6387 97.4305ZM60.7385 97.3792C60.7014 97.2399 60.6247 96.338 60.5498 95.1609C60.4484 93.5677 60.3826 93.4709 59.4002 93.4709C58.4115 93.4709 58.4313 93.4924 58.7342 92.7452C58.909 92.3139 59.1062 92.2033 59.7003 92.2033C60.1109 92.2033 61.0419 92.0579 61.7693 91.8802C62.4967 91.7024 63.4672 91.5128 63.9259 91.4587C64.3846 91.4047 65.1249 91.2173 65.5711 91.0425C66.0173 90.8676 66.4234 90.7245 66.4734 90.7245C66.5235 90.7245 66.6293 91.1048 66.7085 91.5695C66.8848 92.6034 67.1196 92.6419 67.484 91.6966C67.6362 91.3017 68.1915 90.6062 68.7179 90.151C69.8901 89.1374 71.8503 88.6408 73.249 89.0031C74.0599 89.2131 74.0848 89.2053 73.7408 88.8487C73.2529 88.343 73.2742 88.2811 74.0377 87.9844C74.4003 87.8435 74.8721 87.5468 75.086 87.325C75.548 86.8462 75.8556 86.8059 75.8556 87.2243C75.8556 87.7109 77.2842 90.1133 77.6973 90.3214C78.2229 90.5862 78.7633 90.3449 78.9151 89.7775C79.1384 88.9428 77.7058 86.7369 76.7564 86.4536C76.5468 86.391 76.8283 86.1766 77.4987 85.8882C78.0928 85.6327 78.7632 85.2616 78.9887 85.0636C79.8985 84.2644 81.7655 82.7978 81.9571 82.7318C82.0695 82.6931 82.1615 82.5267 82.1615 82.3621C82.1615 81.9414 82.3785 81.9893 82.867 82.5177C83.408 83.1028 83.4084 83.1016 82.6119 83.362C81.8714 83.6042 81.7766 83.8899 82.2398 84.4841C82.5313 84.8581 82.5638 84.8543 83.0618 84.3871C83.444 84.0286 83.6716 83.9547 83.9272 84.106C84.4066 84.3896 84.5208 84.8092 84.1186 84.8092C83.4888 84.8092 83.2913 85.9519 83.8843 86.1653C84.3044 86.3165 85.7608 85.4797 85.7632 85.0857C85.7664 84.5986 86.1506 84.6181 86.4369 85.1199C86.7704 85.7044 86.8396 85.6165 84.612 87.4389C83.8234 88.084 83.1083 88.6119 83.0228 88.6119C82.9374 88.6119 82.8102 88.4455 82.7402 88.2422C82.4985 87.5398 79.9208 84.9799 79.5716 85.0954C79.2015 85.2178 79.4155 85.7494 80.5133 87.4347C81.2586 88.5789 81.6897 89.0392 82.0273 89.0511C82.3585 89.0628 82.3985 89.1037 82.1615 89.1884C81.9757 89.2547 81.773 89.3683 81.711 89.4407C81.4886 89.7007 80.3702 90.302 80.1089 90.302C79.9623 90.302 79.4978 90.6347 79.0767 91.0414C78.6557 91.4481 78.1134 91.7808 77.8716 91.7808C77.6299 91.7808 77.4321 91.8823 77.4321 92.0063C77.4321 92.244 76.5092 92.0592 76.306 91.7808C76.2441 91.6959 75.9736 91.5622 75.7049 91.4835C75.331 91.3742 75.1813 91.4443 75.0669 91.7821C74.8395 92.4542 75.3352 92.8371 76.4329 92.8371C77.6013 92.8371 77.8366 93.0967 77.2257 93.7118C76.7455 94.1954 75.3875 94.4928 73.5605 94.5146C72.9795 94.5215 72.4473 94.6133 72.3779 94.7186C71.9943 95.3009 68.4237 95.1132 68.4237 94.5108C68.4237 94.4036 68.2791 94.3159 68.1024 94.3159C67.9257 94.3159 67.7272 94.1495 67.6614 93.9462C67.5955 93.7429 67.5786 93.8617 67.6238 94.2103C67.669 94.5589 67.778 95.058 67.866 95.3194C67.9937 95.6992 67.9391 95.7947 67.5942 95.7947C67.3568 95.7947 67.0663 95.8798 66.9486 95.9837C66.831 96.0877 66.3952 96.2399 65.9804 96.322C65.2847 96.4597 65.2378 96.4364 65.3778 96.0228C65.5294 95.5745 64.7058 92.5019 64.3266 92.1013C64.2051 91.973 64.0798 92.0739 63.9986 92.3654C63.9007 92.7163 63.7003 92.8371 63.2157 92.8371H62.5644L62.7085 94.0518C62.7877 94.7199 62.9786 95.621 63.1328 96.0542L63.4131 96.8418L62.5966 96.9636C62.1475 97.0306 61.6041 97.1753 61.3891 97.2851C60.9498 97.5094 60.7798 97.534 60.7385 97.3792H60.7385ZM72.4662 93.2706C72.9332 92.9935 72.8764 91.6772 72.375 91.1575C72.0783 90.8499 71.679 90.7245 70.9966 90.7245C70.1255 90.7245 70.023 90.7801 69.8962 91.3216C69.7262 92.0474 70.056 92.9354 70.607 93.2361C71.1112 93.5112 72.032 93.5283 72.4662 93.2706V93.2706ZM35.9937 95.8627C35.5602 95.6866 35.1788 95.5188 35.1462 95.4898C35.1136 95.4608 35.2403 95.0928 35.4277 94.672C35.8095 93.8148 35.8664 93.2596 35.5724 93.2596C35.4646 93.2596 34.9832 93.6398 34.5027 94.1045C34.0222 94.5691 33.5688 94.9494 33.4951 94.9495C33.4215 94.9496 33.0921 94.7328 32.7632 94.4676C32.314 94.1056 32.1596 93.7769 32.1427 93.1473C32.1304 92.6862 32.0507 92.0747 31.9656 91.7885C31.8117 91.2708 31.8083 91.272 31.3124 92.0247C31.0382 92.4408 30.8139 93.0315 30.8139 93.3374C30.8139 93.9757 30.8176 93.9747 29.6577 93.6487C28.7485 93.3932 28.5507 93.1202 29.1248 92.9135C29.3106 92.8466 29.4627 92.6595 29.4627 92.4976C29.4627 92.3357 29.564 92.2033 29.6879 92.2033C29.8117 92.2033 29.9131 92.0828 29.9131 91.9355C29.9131 91.7881 30.1612 91.325 30.4645 90.9063C31.0895 90.0436 31.4272 89.0344 31.091 89.0344C30.7077 89.0344 29.2211 89.6723 28.3674 90.2031C27.9169 90.4831 27.4132 91.0002 27.248 91.3522C26.881 92.134 26.7389 92.1392 25.2377 91.4267C23.993 90.836 23.8659 90.5489 24.6936 90.1982C24.9654 90.0831 25.2444 89.8216 25.3135 89.6173C25.3827 89.4129 25.5338 89.2457 25.6493 89.2457C25.8893 89.2457 25.9196 88.243 25.7148 87.0802C25.5992 86.4246 25.4832 86.288 25.0416 86.288C24.7482 86.288 24.5081 86.193 24.5081 86.0768C24.5081 85.5987 23.4997 84.9572 22.5986 84.8619C21.6721 84.7639 21.6423 84.7809 21.1704 85.6757C20.7585 86.4567 20.7315 86.6503 20.9848 87.0081C21.4617 87.682 21.7687 87.6383 22.2811 86.8236C22.7176 86.1296 22.7966 86.0884 23.1286 86.3811C23.3299 86.5587 23.7896 86.9276 24.1501 87.2009L24.8056 87.6977L24.1026 88.6562C23.0149 90.1392 22.746 90.1233 20.3989 88.4361C18.9248 87.3765 18.5246 86.5576 18.7603 85.0832C18.9599 83.8351 19.0887 83.5416 19.4374 83.5416C19.5948 83.5416 19.8497 83.399 20.0039 83.2247C20.4737 82.6937 22.3565 82.8132 23.3336 83.436C23.7893 83.7265 24.2434 83.9641 24.3426 83.9641C24.4419 83.9641 24.8778 84.2969 25.3113 84.7036C25.7448 85.1102 26.1483 85.443 26.2078 85.443C26.2673 85.443 26.6681 85.6569 27.0983 85.9183C27.6841 86.2742 27.8813 86.5431 27.8834 86.9885C27.8867 87.6795 28.2474 88.4006 28.5899 88.4006C28.7206 88.4006 29.0025 88.1978 29.2165 87.9499C29.5905 87.5166 29.6356 87.5125 30.3787 87.844C30.8038 88.0336 31.439 88.4208 31.7901 88.7044C32.1412 88.9879 32.7188 89.2798 33.0736 89.3529C33.6434 89.4703 33.7348 89.6011 33.857 90.4748C33.9332 91.0188 34.0143 91.5986 34.0374 91.7633C34.1165 92.3273 34.5467 92.2078 35.4864 91.3608C36.0036 90.8946 36.5462 90.5132 36.6923 90.5132C36.8383 90.5132 37.3992 90.72 37.9388 90.9728C38.7901 91.3717 38.8805 91.4763 38.6231 91.765C38.2141 92.2237 37.5023 95.2614 37.6805 95.7879C37.7988 96.1377 37.729 96.2141 37.3038 96.2C37.0168 96.1906 36.4272 96.0387 35.9937 95.8627ZM24.2829 81.7362C24.2829 81.5566 24.5388 80.6297 24.8516 79.6765C25.8456 76.6475 26.0256 76.0917 26.781 73.718C27.5955 71.1585 27.5961 71.1572 27.8127 71.3604C27.8962 71.4387 27.7434 72.1913 27.4733 73.0329C25.4034 79.4807 24.6414 81.575 24.7598 81.5067C30.0751 78.4773 35.5879 75.0004 40.8408 71.8973L41.9891 71.0984C42.2936 70.7543 43.6508 70.3293 43.6508 70.6291C43.6508 70.7312 43.3468 70.9329 42.9752 71.0772L41.6802 71.9063L39.2592 73.2786L28.3939 79.8503L24.3886 82.0628C24.3385 82.0905 24.2829 81.9158 24.2829 81.7362ZM77.4241 81.6691C77.088 81.5384 69.6606 77.1742 67.689 76.0989L66.28 75.3305L60.8034 72.1985C60.5116 72.0316 60.3333 71.8359 60.4018 71.7716C62.3633 72.6005 64.5244 73.9642 65.9745 74.7904L76.2932 80.5995C76.8188 80.9567 77.3047 81.1963 77.3732 81.1322C77.5225 80.9921 77.0556 79.4678 76.0727 76.8869C75.6744 75.8412 75.27 74.7004 75.1738 74.3518C75.0777 74.0032 74.3747 72.0543 73.6115 70.021C72.8484 67.9876 71.624 64.6127 70.8906 62.5212C70.1572 60.4297 69.2379 57.8329 68.8476 56.7504C68.4444 55.632 68.2241 54.7081 68.3372 54.6103L92.7603 37.7903L91.7202 37.8598L64.2942 36.1346L63.339 36.1889C62.7324 36.0368 62.614 35.6632 63.2008 35.7429C63.5709 35.7932 66.8041 35.9305 69.775 36.0222L93.3783 37.5868C93.4476 37.6519 93.3084 37.8493 93.069 38.0257L70.0002 53.985C69.2095 54.529 68.7436 54.768 68.7865 54.9954C68.8758 55.4686 71.893 64.1763 72.7237 66.3345L74.1061 70.021C74.3057 70.66 74.9917 72.6089 75.6305 74.3518C77.4081 79.2014 78.1331 81.491 77.9429 81.6547C77.8477 81.7366 77.6143 81.743 77.4241 81.6691V81.6691ZM25.4136 71.3994C25.233 71.1953 25.1952 70.7873 25.3013 70.1867C25.4943 69.0943 25.7872 68.532 26.3631 68.1488C26.7304 67.9045 26.7725 67.7046 26.6432 66.8222C26.4549 65.5384 26.7376 65.1558 27.8575 65.1786L28.6744 65.1953L28.0271 65.4162C27.4065 65.628 27.3851 65.6799 27.5098 66.6674C27.622 67.5564 27.568 67.765 27.1162 68.1889C26.4099 68.8514 26.1447 69.3557 26.0508 70.2144C25.9616 71.0305 26.4844 71.4096 26.6887 70.6769C26.8379 70.1416 27.1091 70.102 27.3074 70.5866C27.5932 71.2853 25.9403 71.9947 25.4136 71.3994V71.3994ZM59.2734 67.7394C58.7333 66.7682 59.1 63.3905 60.3677 61.6321C61.225 60.443 61.0816 60.475 61.781 59.5327L62.6598 58.4209L63.3479 57.5077L64.1721 56.6719C64.4235 56.4171 64.7638 55.8817 65.1309 55.4838C65.6718 54.8975 65.8264 54.65 66.0049 53.7759C66.1692 53.0483 66.0433 52.7781 65.7859 51.7891C65.425 50.9848 64.9075 50.7625 64.627 50.6492C63.8605 50.3397 63.5715 50.3034 63.1572 50.2943C61.6289 50.3088 57.7049 50.1246 56.4565 50.7451C56.1716 50.909 56.5591 50.7263 55.3924 51.276C55.2995 51.3198 54.7158 51.6561 54.7158 51.4756C54.7158 51.2951 55.0906 51.0147 55.5851 50.7498C56.5754 50.2192 56.6527 49.9509 56.1442 48.8092C55.8942 48.248 55.8401 47.6784 55.9451 46.7166C56.0334 45.9081 55.9767 44.9057 55.799 44.1345C55.6392 43.4412 55.5325 42.3259 55.5618 41.6561C55.5911 40.9862 55.556 40.2641 55.4841 40.0513C55.3644 39.6973 54.3388 39.2778 53.2247 39.127C52.9784 39.0937 52.743 38.9012 52.7015 38.6992C52.6437 38.4179 52.7803 38.3319 53.2846 38.3319C55.331 38.3319 56.0909 39.2552 56.1533 41.8177C56.176 42.7472 56.3181 43.9831 56.4691 44.5641C56.6411 45.2256 56.6872 46.1548 56.5924 47.0502C56.4726 48.1825 56.5163 48.5875 56.8022 48.9969C57.0963 49.6733 57.3694 50.16 58.0672 50.0203C58.5934 49.7657 62.7856 49.5301 63.5817 49.74L64.1705 49.8952C65.1814 50.1617 66.3864 51.0396 66.5546 52.5684C66.6796 53.7045 66.2108 55.1781 65.8991 55.4008C65.2734 56.4755 64.8169 56.8339 64.1469 57.5042C63.6502 57.9982 63.2439 58.4488 63.2439 58.5053C63.2439 58.5619 62.8069 59.1559 62.2727 59.8253C60.6826 61.8179 60.3249 62.5633 59.8496 64.8737C59.4156 66.9834 59.2337 67.0013 59.613 67.6036C59.8094 68.0947 60.7473 68.3161 60.7631 68.6279C60.4539 69.0869 59.5216 68.1857 59.2734 67.7394ZM53.4423 68.0468C52.7223 67.6615 52.1641 67.1255 51.3636 66.8573C51.0266 66.7444 50.6699 66.385 50.306 66.6848C49.7751 67.1223 48.9995 67.3872 48.9995 67.0973C48.9995 67.0681 49.2311 66.7561 49.4218 66.6936C49.6661 66.6135 49.9793 66.4899 50.1255 66.4097C50.3868 66.2664 50.6132 66.0858 50.7612 66.1741C51.1998 66.436 51.8847 66.642 52.6549 67.0367C53.6415 67.5595 54.7295 68.3438 54.789 68.4891C54.9242 68.8196 55.0187 68.8904 53.4423 68.0468ZM30.1559 64.7923C30.3198 64.5889 30.6384 64.2324 30.8639 64C31.0894 63.7676 31.4818 63.3161 31.7359 62.9965C32.1503 62.5526 32.7061 62.3597 32.9737 61.8868C33.1222 61.6213 33.4335 61.1201 33.8225 60.8294C34.2115 60.5386 34.6904 60.1586 34.8866 59.985C35.2254 59.6558 35.7391 59.7217 36.0825 59.494C36.146 59.3977 36.7854 59.1985 37.5034 59.0514C39.485 58.6453 39.7059 58.5201 40.3883 57.4168C40.7359 56.8546 41.1636 56.3147 41.3386 56.2171C41.5136 56.1194 41.9004 55.783 42.1981 55.4695C42.4959 55.1561 43.3488 54.5705 44.0936 54.1683C44.8383 53.7661 45.4487 53.3206 45.45 53.1784C45.4513 53.0361 45.7312 52.7821 46.0718 52.614C46.4124 52.4459 46.854 52.1345 47.053 51.922C48.0189 50.8911 48.6998 50.5546 49.9263 50.5021C50.4452 50.48 50.4563 50.4398 50.3548 48.9554C50.2364 47.2251 50.055 46.9435 48.6195 46.2604C48.0544 45.9915 47.2562 45.379 46.8458 44.8995C46.4354 44.4199 46.0047 44.0825 45.8886 44.1498C45.7726 44.2171 45.6777 44.1714 45.6777 44.0484C45.6777 43.9253 45.5276 43.8247 45.3442 43.8247C45.1607 43.8247 44.9487 43.593 44.8729 43.3099C44.751 42.8544 44.144 42.5384 44.1997 43.0241C44.352 44.3541 43.6711 43.3807 43.3142 42.9806C43.1537 42.8006 42.9016 42.767 42.8249 42.8389C42.7482 42.9108 42.852 43.0296 43.0555 43.1029C43.5441 43.2788 43.6916 44.3548 43.4495 44.8294C43.3155 45.0921 42.4786 44.3236 41.5251 43.5011C41.0675 43.1064 40.7042 42.3465 40.403 41.8078C39.9838 41.0579 40.3717 40.8965 39.6128 40.867C39.1586 40.8494 38.69 40.7913 38.5723 40.6989C38.0642 40.2995 36.6239 39.9801 36.3767 40.212C36.0284 40.5387 34.3681 40.5011 32.0257 40.1136C30.6736 39.8898 29.6244 39.8349 28.787 39.944C26.0595 40.2994 25.1837 40.1508 25.1837 39.3328C25.1837 39.0984 25.0065 38.7851 24.7899 38.6365C24.1843 38.2211 24.6429 38.0165 25.2893 38.4138C25.6028 38.6065 25.8593 38.9521 25.8593 39.1818C25.8593 39.5218 26.0127 39.5994 26.6841 39.5994C27.1377 39.5994 28.052 39.4388 28.7159 39.2425C29.8568 38.9051 29.9838 38.906 31.0304 39.2591C32.3791 39.714 35.7961 39.8386 35.9384 39.4381C36.0491 39.1267 37.4834 39.0856 37.6828 39.3882C37.8698 39.672 39.597 39.6595 39.597 39.3743C39.597 39.2505 39.5098 38.989 39.4032 38.7933L39.3139 36.3046L9.3099 38.1009C8.19162 38.2346 7.97007 38.2233 8.81264 38.7212C14.9004 43.2288 24.3911 48.5696 28.3216 51.5044C32.2522 54.4392 33.3505 54.2679 32.7641 56.097C31.0482 61.4502 30.6212 62.8217 30.4852 63.4166C30.3129 64.1707 29.9131 64.5578 29.9131 63.9706C29.9131 63.7664 30.1689 62.7863 30.4816 61.7927C30.7942 60.799 31.2572 59.3206 31.5104 58.5073C31.7635 57.6939 32.0603 56.7908 32.1698 56.5003C32.7028 55.0863 32.6385 55.0512 29.7604 53.0716C21.5904 47.1922 15.6879 44.06 8.78651 39.4013C8.02831 38.8943 7.167 37.7882 7.167 37.699C18.5448 36.8654 28.3093 36.358 39.172 35.7983L39.457 35.0376C39.6611 34.4929 40.2895 33.9839 40.6301 33.6942C41.8414 32.5248 42.5129 31.6989 44.2334 31.4911C45.8197 31.3245 46.6817 31.0646 46.6817 31.6245C47.0426 31.9388 47.435 31.9591 47.524 32.2413C47.654 31.8756 49.1043 32.8663 49.4778 33.5438C50.1373 34.7403 49.9981 34.855 48.9995 33.8592C48.0518 32.9143 48.0281 32.905 46.6043 32.9248C45.2864 32.9431 45.1484 32.9889 44.9528 33.4729C44.6755 34.1594 44.8587 36.0056 45.2254 36.2182C45.382 36.309 45.4378 36.4932 45.3493 36.6274C45.1137 36.9851 45.6501 37.4868 46.2683 37.4868C46.7897 37.4868 46.9552 37.6968 46.6555 37.978C46.574 38.0544 46.367 38.0077 46.1956 37.8742C45.9606 37.6913 45.8195 37.6918 45.6231 37.8762C45.4256 38.0614 45.4619 38.1207 45.7728 38.1207C46.1209 38.1207 46.1385 38.1713 45.8886 38.4537C45.6445 38.7297 45.6494 38.8196 45.9174 38.9786C46.3627 39.243 46.5903 39.2238 47.3362 38.8588C48.1012 38.4845 48.155 38.478 48.155 38.759C48.155 38.8777 47.9016 39.0831 47.5919 39.2155C46.7173 39.5893 46.9128 39.7567 48.4154 39.9203C49.1779 40.0033 50.166 40.2119 50.6112 40.3838C51.45 40.7077 52.4339 41.4447 52.4339 41.749C52.4339 42.0898 51.6922 41.9165 51.2903 41.4819C50.986 41.1528 50.5208 41.0112 49.4622 40.9257C48.6813 40.8626 47.941 40.7369 47.8172 40.6465C47.3889 40.3338 45.1296 40.048 44.843 40.2703C44.6936 40.3861 44.4598 40.4163 44.3235 40.3372C44.0037 40.1518 42.9752 40.3916 42.9752 40.6516C42.9752 41.0085 43.8919 41.6622 44.5711 41.7897C45.2337 41.914 46.0789 42.6156 47.857 44.5173C48.3743 45.0707 49.1344 45.6572 49.546 45.8208C50.6555 46.2618 51.1602 46.9492 51.3378 48.2611C51.6329 50.441 51.5944 50.6564 50.8378 51.0603C50.4569 51.2637 49.8191 51.43 49.4203 51.43C48.1665 51.43 47.6195 51.8296 46.9841 53.2096C46.4427 54.3856 46.3291 54.4986 45.6307 54.5563C45.154 54.5957 44.4506 54.9306 43.7529 55.4504C43.1393 55.9074 42.3129 56.497 41.9163 56.7605C41.5198 57.0241 41.0928 57.4505 40.9674 57.7082C40.62 58.422 39.0514 59.3845 37.9719 59.5461C36.4611 59.7723 33.9668 60.9916 33.9668 61.504C33.9668 61.8095 30.4802 65.162 30.1624 65.162C29.909 65.162 29.9079 65.0999 30.1559 64.7923V64.7923ZM42.75 41.2895C42.75 41.1733 42.5979 41.0783 42.4121 41.0783C42.2263 41.0783 42.0743 41.1733 42.0743 41.2895C42.0743 41.4057 42.2263 41.5008 42.4121 41.5008C42.5979 41.5008 42.75 41.4057 42.75 41.2895ZM45.2273 39.5994C45.2273 39.4833 45.1319 39.3882 45.0153 39.3882C44.8988 39.3882 44.7408 39.4833 44.6642 39.5994C44.5877 39.7156 44.6831 39.8107 44.8761 39.8107C45.0693 39.8107 45.2273 39.7156 45.2273 39.5994ZM42.75 38.9781C42.75 38.7289 42.3107 38.4622 42.1494 38.6136C41.9881 38.7649 42.2723 39.1769 42.538 39.1769C42.6546 39.1769 42.75 39.0875 42.75 38.9781ZM44.4699 36.6284C44.3126 35.8904 43.65 34.8791 43.6521 35.38C43.6528 35.5511 43.7588 36.0476 43.8878 36.4834C44.1728 37.446 44.6707 37.5701 44.4699 36.6284ZM32.9383 64.9736C33.0869 64.7481 35.8938 63.6052 36.2047 63.4719C36.3056 63.4286 36.4388 63.388 36.4441 63.3023C36.4611 63.0313 38.5097 62.4123 39.3718 62.4256L40.1601 62.4378L39.0483 62.9548C38.4369 63.2392 37.6547 63.3237 37.4156 63.4719C37.3075 63.5388 36.9924 63.6036 36.8945 63.6831C36.8009 63.7592 36.7172 63.8956 36.5004 63.8971C36.2837 63.8983 35.5093 64.1837 34.7796 64.5308C33.4693 65.1542 32.697 65.3399 32.9383 64.9736V64.9736ZM59.1593 58.1682C59.1144 57.1684 59.1506 56.2652 59.2398 56.1612C60.3981 54.8108 60.9904 54.2784 61.6004 54.0393C62.5137 53.6814 62.5683 53.6831 62.5683 54.0708C62.5683 54.2451 62.3826 54.3877 62.1556 54.3877C61.2464 54.3877 59.6615 56.9512 59.6248 58.481C59.616 58.844 59.5262 59.3312 59.425 59.5636C59.3028 59.8441 59.2136 59.3754 59.1593 58.1682ZM52.4339 42.8615C52.4339 42.6804 52.5369 42.5919 52.6628 42.6649C52.7887 42.7378 52.8334 42.8861 52.7621 42.9942C52.5691 43.2872 52.4339 43.2326 52.4339 42.8615ZM21.8776 40.5942C21.8132 40.4964 21.948 40.2831 22.1771 40.1203C22.5615 39.8471 22.5359 39.8236 21.8458 39.8174C21.1809 39.8114 21.1353 39.7755 21.4356 39.4938C21.6214 39.3195 22.0644 39.1769 22.4201 39.1769C22.7757 39.1769 23.1821 39.0687 23.3231 38.9364C23.5148 38.7566 23.7534 38.8591 24.269 39.3427C25.2962 40.3063 25.0893 41.2729 24.0079 40.5624C23.3807 40.1502 23.1568 40.1464 23.1568 40.5478C23.1568 40.8844 22.0942 40.923 21.8776 40.5942ZM2.66284 38.9503L0.271701 37.986C-0.0616201 37.8515 -0.114762 37.716 0.261652 36.826C0.427377 36.4342 0.73979 35.6621 0.955904 35.1102C1.37294 34.0451 1.57628 33.7057 2.28955 34.2115C2.67366 34.4838 2.4666 34.6338 2.41299 35.0768C2.3792 35.356 1.92428 36.4842 2.02612 36.2144C2.07527 36.0841 2.75243 36.6498 2.85936 36.3609C3.06509 35.8048 3.23829 35.0725 3.70095 35.1855C4.61062 35.4076 3.65497 36.2477 3.88099 36.7515C4.10198 37.2441 4.58256 37.2548 4.90677 36.3485C5.10031 35.8074 5.17243 35.4851 5.48127 35.3954C5.70777 35.3296 6.11227 35.486 6.2893 35.6238C6.68725 35.9336 6.26207 36.1963 5.79025 37.6337L5.36534 38.9282C5.09351 39.7563 4.87927 39.7987 2.66284 38.9503L2.66284 38.9503ZM98.3001 38.4903C97.6192 37.0418 96.9865 35.1814 97.1107 34.9929C97.1821 34.8846 97.6306 34.7374 98.1075 34.6659C98.5844 34.5944 99.5748 34.2503 100.308 33.9014C101.837 33.1744 101.98 33.1463 101.98 33.5725C101.98 33.7435 102.238 34.4314 102.554 35.1011C103.187 36.4442 103.144 37.2756 102.44 37.2756C102.118 37.2756 101.99 37.1019 101.938 36.589C101.884 36.0682 101.748 35.8864 101.372 35.8363C100.925 35.7766 100.89 35.8404 101.004 36.5025C101.108 37.0998 101.044 37.2782 100.66 37.4711C100.248 37.678 100.171 37.6397 100.044 37.1633C99.9358 36.7602 99.7738 36.6358 99.4188 36.6833C99.032 36.7351 98.9532 36.8698 99.0105 37.3812C99.0496 37.7298 99.2216 38.218 99.3929 38.4661C99.7385 38.9668 99.6297 39.1769 99.0251 39.1769C98.7876 39.1769 98.4906 38.8957 98.3001 38.4903ZM49.8936 38.2305C49.2192 37.5979 49.0558 37.2872 49.0558 36.638C49.0558 35.7039 49.2364 35.163 49.5482 35.163C49.6754 35.163 49.7037 35.4344 49.6156 35.8107C49.4469 36.5309 49.8574 37.6981 50.2793 37.6981C50.4267 37.6981 50.7649 37.508 51.0308 37.2756C51.2967 37.0432 51.7094 36.8531 51.9478 36.8531C52.192 36.8531 52.4328 36.6685 52.4992 36.4305C52.564 36.1982 52.7785 36.008 52.9759 36.008C53.1733 36.008 53.3348 35.8678 53.3348 35.6964C53.3348 35.3703 54.542 34.787 56.8302 34.0075C58.4907 33.4419 60.0502 32.4227 59.9165 31.9906C59.8632 31.8182 59.6411 31.2969 59.4231 30.8321C56.3925 23.6704 54.2691 17.8667 51.3773 10.5844C51.1533 10.0217 50.8986 9.20105 50.7747 9.23997C50.6508 9.27889 50.3576 10.1314 50.1596 10.6552C49.2751 12.5159 48.8329 14.0211 48.0508 15.8327C47.799 16.4104 47.3627 17.4805 45.8976 21.1142C45.6165 21.8113 45.2589 22.6669 45.1029 23.0155C44.9469 23.3641 44.6363 24.1246 44.4127 24.7056C43.2087 27.5069 41.9718 30.8679 41.1511 32.7439C39.6864 34.4828 43.4434 26.001 44.175 24.0696C44.9373 22.0172 47.0662 16.6827 47.4623 15.8327C48.1827 13.9868 49.1464 12.0397 49.7505 10.3923C50.0094 9.67154 50.3561 8.84202 50.5211 8.54892L50.821 8.01602L51.3062 9.07232C52.6955 12.5498 53.9621 15.9367 55.259 19.2128L56.5334 22.3522L57.5448 24.993L58.9406 28.4027L59.6385 30.1984C59.9675 30.7717 59.9954 31.3232 60.639 31.7376C61.3512 31.0021 63.5832 29.7027 64.2528 29.5459C64.6218 29.4595 66.0529 28.9869 67.433 28.4958C69.7585 27.6681 70.0711 27.6088 71.7045 27.6848C72.6738 27.7299 73.6243 27.8118 73.8167 27.8669C74.0091 27.922 74.5363 27.8871 74.9882 27.7894C75.4401 27.6917 75.9249 27.6785 76.0656 27.76C76.821 28.198 75.0088 29.3532 73.6405 29.3059C72.9557 29.2822 73.022 29.2471 73.2197 29.6335C73.49 30.1616 73.4165 30.6008 73.4773 31.1295C73.528 31.5696 72.8887 31.387 72.7239 31.226C72.145 30.6608 71.7094 30.5527 71.5304 30.3995C70.6578 29.6527 69.9108 29.6133 68.6767 30.4624C64.8502 33.8099 63.5426 34.7405 62.6652 34.7405C61.9873 34.7405 62.4425 34.0311 63.2443 33.838C64.1641 33.6166 65.031 33.0276 66.2843 31.7729C68.8771 29.1769 68.7463 29.2622 70.1117 29.2775C70.8936 29.2863 71.5128 29.3883 71.6948 29.6C73.2614 31.422 73.3644 30.7541 72.3763 29.3052C72.2673 29.1452 72.2809 28.6943 72.5057 28.6877C77.5677 28.5387 72.6366 28.1389 71.0793 28.1389C69.8919 28.1391 69.4253 28.2584 68.1985 28.8752C67.3934 29.28 66.1773 29.7817 65.496 29.99C64.2372 30.375 61.6474 31.5229 61.4423 31.7868C61.3803 31.8664 60.7216 32.3912 59.9784 32.9529C59.2352 33.5147 58.503 34.1356 58.3512 34.3329C58.1994 34.5301 57.7223 34.7536 57.2909 34.8295C55.8134 35.0895 53.8633 36.4 54.0985 36.9749C54.2443 37.3313 53.977 37.371 53.6291 37.0447C53.451 36.8776 53.2361 36.8998 52.8521 37.1251C52.5602 37.2964 52.0452 37.4966 51.7077 37.57C51.2632 37.6667 51.0441 37.8844 50.9127 38.3599L50.7314 39.0164L49.8936 38.2305ZM6.33589 33.9216L3.63389 32.5082L3.33846 33.0437L3.01907 33.4729L1.98721 32.8088C1.45862 32.4687 4.24311 27.9801 4.564 27.9801C5.04959 27.9801 5.19236 28.3762 5.49156 28.8585C5.82311 29.3929 4.59446 30.1999 4.80314 30.294L6.71659 31.156L7.61742 31.4414L8.51859 31.7325C8.60504 31.7604 8.24008 32.4338 7.89926 33.1004C7.25512 34.3603 7.08535 34.3137 6.33589 33.9216ZM96.9765 34.1483C96.5137 33.9714 95.3971 32.3688 94.9768 31.2784C94.6468 30.4223 94.8543 29.8321 95.5292 29.7075C95.8257 29.6528 95.9006 29.8206 95.9063 30.5526C95.914 31.5286 96.3628 32.3068 96.8331 32.1598C97.028 32.0988 97.1229 31.5941 97.1289 30.5859C97.1347 29.6497 97.2519 28.9727 97.4469 28.7522C97.7687 28.3883 98.8269 28.2634 98.8269 28.5893C98.8269 28.6919 99.0094 28.8207 99.2325 28.8754C99.4556 28.9301 99.937 29.5106 100.302 30.1654C100.819 31.0912 100.913 31.4358 100.725 31.7152C100.297 32.3522 100.009 32.245 99.6961 31.3325C99.1976 29.8793 98.8274 30.0404 98.8236 31.7124C98.8185 33.8362 98.2211 34.6243 96.9765 34.1483ZM93.571 28.9441C92.8564 27.5749 92.8542 27.5576 93.3978 27.5576C93.7394 27.5576 94.0975 27.1846 94.0975 26.8287C94.0975 26.7954 93.7008 26.7183 93.2158 26.6573C92.0642 26.5124 90.4954 25.3712 90.1715 24.6868C90.0319 24.392 89.7848 24.0211 89.7168 23.8405C89.5117 23.296 89.066 21.7184 89.3634 20.9847C91.1203 19.1432 91.7719 19.6841 92.8075 19.811C93.9531 20.041 94.9477 21.3091 95.3565 22.1425C95.8104 23.068 95.8925 23.4059 95.7669 24.3887C95.6852 25.0278 95.5151 25.6718 95.3889 25.8198C95.2626 25.9679 95.208 26.1346 95.2675 26.1904C95.427 26.3401 96.8 25.6584 96.8 25.4295C96.8 24.9577 97.2788 25.3027 97.7008 26.0788C97.9536 26.5436 98.2597 26.9238 98.381 26.9238C98.5024 26.9238 98.6017 27.0189 98.6017 27.1351C98.6017 27.2513 98.4456 27.3463 98.2549 27.3463C97.3328 27.3463 94.5479 29.188 94.5479 29.7977C94.5479 30.4033 94.1522 30.0575 93.571 28.9441ZM93.0893 24.4383C93.4589 24.1893 94.0975 23.1642 94.0975 22.8199C94.0975 22.2995 93.1618 21.6423 92.421 21.6423C91.8678 21.6423 91.6697 21.7704 91.4268 22.2853C91.0893 23.0004 91.242 24.2943 91.6836 24.4623C92.1064 24.623 92.8334 24.6106 93.0893 24.4383ZM5.68785 25.6998C6.90102 20.9263 12.5021 22.5443 12.2284 26.0369C11.4725 30.5743 5.03995 29.4867 5.68785 25.6998ZM8.04089 26.828C9.21799 27.3227 11.1088 26.5502 10.1061 24.8809C8.83089 23.5843 6.31779 25.5133 8.04089 26.828ZM13.3391 23.787C13.5208 23.5112 10.8022 21.0085 10.321 21.0085C10.0873 21.0085 9.83284 20.9125 9.75553 20.7952C9.61383 20.5801 10.9432 18.4734 11.2206 18.4734C11.3027 18.4734 11.5137 18.7269 11.6894 19.0366C12.0068 19.5961 14.2953 21.5122 14.8551 21.6872C15.0626 21.7521 14.9303 22.0962 14.3993 22.8724C13.9878 23.474 13.5543 23.9662 13.4361 23.9662C13.3178 23.9662 13.2742 23.8855 13.3391 23.787ZM15.2745 21.3454C15.2745 21.086 14.7276 20.3763 13.2977 18.7798C13.0843 18.5417 12.7325 18.2833 12.5157 18.2055C12.033 18.0324 11.9988 17.5065 12.4594 17.3407C12.9351 17.0443 13.2817 15.7547 13.9091 16.0357C14.0407 16.112 14.1485 16.307 14.1485 16.469C14.1485 16.9149 16.1855 18.8959 16.644 18.8959C17.0267 18.8959 17.7622 18.1051 18.0282 17.4076C18.0992 17.2213 17.7285 16.4959 17.1643 15.7175C16.6207 14.9675 16.1758 14.2112 16.1756 14.0369C16.1753 13.7138 18.87 11.7131 19.3054 11.7131C19.4371 11.7131 19.6118 11.9632 19.6936 12.2689C19.8007 12.6692 19.7389 12.8791 19.4727 13.0188C19.0445 13.2436 18.9639 13.9243 19.3846 13.7629C19.5394 13.7035 19.8309 13.5926 20.0324 13.5165C20.3013 13.4148 20.4394 13.5299 20.5516 13.9493C20.6373 14.2698 20.6001 14.6185 20.4668 14.7435C20.3361 14.8662 20.2291 15.0901 20.2291 15.2411C20.2291 15.6934 20.9296 15.5523 21.4875 14.9876C22.1463 14.3207 22.5654 14.318 22.8863 14.9787C23.1095 15.4382 23.0629 15.5535 22.4812 15.9822C22.1197 16.2485 21.2951 16.918 20.6489 17.4699C20.0026 18.0218 19.3871 18.4734 19.2812 18.4734C19.1752 18.4734 18.9969 18.2595 18.8849 17.9981C18.6978 17.5616 18.6799 17.5573 18.6653 17.9453C18.6566 18.1777 17.9914 19.0244 17.1872 19.827C16.3829 20.6296 15.7249 21.3663 15.7249 21.4643C15.7249 21.5622 15.6236 21.6423 15.4997 21.6423C15.3759 21.6423 15.2745 21.5087 15.2745 21.3454L15.2745 21.3454ZM86.8499 20.4804C86.7088 20.1899 86.4692 19.9522 86.3176 19.9522C86.1659 19.9522 85.8612 19.6908 85.6404 19.3713C85.4197 19.0517 85.0533 18.6366 84.8263 18.4486C84.3575 18.0606 84.2981 17.8396 84.6626 17.8396C84.7996 17.8396 85.111 17.602 85.3546 17.3115C85.5982 17.021 85.9421 16.7833 86.1189 16.7833C86.2958 16.7833 86.4404 16.6932 86.4404 16.583C86.4404 16.4727 86.6962 16.1237 87.0089 15.8072C87.3215 15.4907 87.6383 15.0039 87.7128 14.7254C87.845 14.2314 87.8723 14.2422 88.8334 15.1698C89.8984 16.1977 89.9895 16.3608 89.4981 16.3608C89.3219 16.3608 88.7049 16.88 88.1271 17.5145C87.2362 18.4926 87.0982 18.7614 87.2199 19.281C87.305 19.6444 87.588 19.9899 87.9153 20.1298C88.5492 20.4007 88.6259 20.695 88.1111 20.8803C87.4486 21.1188 87.1073 21.0105 86.8499 20.4804ZM83.5941 17.3115C83.5228 17.1372 83.3487 16.991 83.2071 16.9865C82.8824 16.9764 80.585 14.9793 80.585 14.7072C80.585 14.5961 80.8383 14.4456 81.148 14.3727C81.4577 14.2998 81.712 14.1231 81.7132 13.9801C81.7145 13.8371 82.0691 13.3026 82.5014 12.7925C82.9338 12.2823 83.2875 11.6881 83.2875 11.4721C83.2875 11.2561 83.3448 11.0793 83.4149 11.0793C83.711 11.0793 84.5723 11.608 85.1882 12.1677C85.6801 12.6147 85.7551 12.7694 85.4802 12.7694C85.2767 12.7694 84.9281 13.0184 84.7056 13.3228C84.483 13.6271 84.0832 14.0806 83.8171 14.3305C83.551 14.5805 83.2977 14.9867 83.2541 15.2332C83.1686 15.7171 83.8509 16.5721 84.3225 16.5721C84.8258 16.5721 84.9256 17.0109 84.4924 17.3188C83.953 17.7021 83.7533 17.7005 83.5941 17.3115V17.3115ZM79.1774 14.3386C78.8368 14.1653 78.5581 13.9314 78.5581 13.8189C78.5581 13.7065 78.4061 13.6144 78.2203 13.6144C78.0345 13.6144 77.8825 13.4718 77.8825 13.2975C77.8825 13.1232 78.0377 12.9806 78.2274 12.9806C78.4171 12.9806 78.6362 12.8143 78.7145 12.6109C78.7927 12.4076 79.1834 11.7659 79.5828 11.1849C79.9822 10.604 80.3762 9.91959 80.4585 9.66409C80.6217 9.15728 80.8074 9.18665 82.1037 9.92425C82.9493 10.4054 83.0244 10.6504 82.3752 10.8096C82.0922 10.879 81.8632 11.1579 81.784 11.5293C81.7129 11.8628 81.5661 12.1356 81.4577 12.1356C81.3493 12.1356 81.2606 12.2782 81.2606 12.4525C81.2606 12.6268 81.1705 12.7694 81.0603 12.7694C80.9501 12.7694 80.7253 13.1972 80.5607 13.7201C80.2352 14.7541 80.1068 14.8116 79.1774 14.3386ZM30.7802 9.82838C30.9725 10.0237 31.2643 10.3502 31.2643 10.4988C30.2761 11.7584 28.2142 12.541 26.6906 12.5456C25.6149 12.5359 25.3646 12.2795 25.0251 11.9587C24.7057 11.657 24.3904 11.3246 24.3228 10.3285C24.1612 8.38495 25.4302 6.87684 27.4358 6.43157C27.8024 6.35578 28.312 6.20495 28.5452 6.61365C28.8292 7.11145 28.4886 7.53833 27.4913 7.93443C26.5761 8.29793 26.1594 9.271 26.563 10.102C26.7876 10.5644 26.9804 10.6568 27.7212 10.6568C28.4818 10.6568 28.5857 10.6034 28.4415 10.2871C28.1114 9.56318 28.081 8.81997 28.3516 8.64111C28.5262 8.52572 28.947 8.01794 29.6133 8.70072C30.2475 9.29116 30.5855 9.6307 30.7802 9.82838V9.82838ZM36.3837 4.17565C38.6886 6.06467 37.4638 11.0142 32.2715 8.31801C28.413 4.26881 34.3388 2.29295 36.3837 4.17565ZM35.0016 5.29135C33.0147 4.41193 32.2609 6.51367 33.4953 6.98943C35.5915 7.79734 35.8437 5.66406 35.0016 5.29135ZM75.1349 11.7298C74.392 10.9158 74.2792 10.4282 74.2792 8.02991C74.2792 5.3244 74.3764 5.17648 75.5391 6.11442C75.899 6.40476 76.27 6.64243 76.3636 6.64257C76.4573 6.64271 76.4667 7.46222 76.3847 8.46369L76.2355 10.2846L76.7601 10.0211C77.5897 9.60469 78.5581 8.49589 78.5581 7.96262V7.47522L79.29 7.95617C79.6926 8.22069 80.0659 8.46282 80.1196 8.49424C80.2375 8.5632 78.4078 10.2343 78.2145 10.2343C78.1397 10.2343 77.8228 10.5195 77.5101 10.868C77.1974 11.2166 76.8094 11.5018 76.6479 11.5018C76.4864 11.5018 76.2959 11.6444 76.2246 11.8187C76.0465 12.254 75.5785 12.2159 75.1349 11.7298H75.1349ZM70.3573 9.28732C69.9132 8.88269 69.5498 8.4099 69.5498 8.23667C69.5498 7.8471 68.613 6.00905 68.4145 6.00905C68.2486 6.00905 67.7481 7.48024 67.7481 7.96794C67.7481 8.24224 67.6243 8.25771 66.9599 8.06643C66.0336 7.79975 65.9946 7.55578 66.6883 6.36659C67.3795 5.18174 67.7178 4.05404 67.5819 3.38741C67.5148 3.05787 67.5723 2.84014 67.7267 2.84014C68.2895 2.84014 69.7499 3.96648 70.0063 4.59835C71.1082 7.31342 71.5197 7.57685 71.744 5.71053C71.8684 4.67513 72.1032 4.54202 72.9873 5.00556C73.2643 5.1508 73.5289 5.28942 73.5753 5.31359C73.6217 5.33777 73.343 5.97348 72.956 6.72629C72.5689 7.4791 72.2523 8.23592 72.2523 8.40811C72.2523 8.77782 71.5305 10.0197 71.3145 10.0217C71.2322 10.0224 70.8015 9.69194 70.3573 9.28732ZM63.5817 7.56405C62.7289 7.25372 60.9263 6.90324 60.0096 6.86951C59.6509 6.85631 59.6127 6.74306 59.7445 6.08383C59.9166 5.22358 59.6803 4.96134 58.7285 4.95598C58.0167 4.95197 57.6137 5.30971 57.6137 5.94567C57.6137 6.37091 57.5024 6.43157 56.7218 6.43157C56.2312 6.43157 55.7014 6.30261 55.5444 6.14499C55.3288 5.92843 55.0678 5.90796 54.4761 6.06122C54.0454 6.17277 53.063 6.22639 52.2929 6.1804C51.1431 6.11172 50.8104 6.00393 50.4322 5.57757C50.0779 5.17815 49.9699 5.13811 49.9641 5.40401C49.9503 6.04365 48.4903 6.48297 46.6658 6.39654C45.7523 6.35327 44.9768 6.39711 44.9423 6.49398C44.9079 6.59084 44.4259 6.71947 43.8712 6.77983C43.3164 6.84019 42.4805 7.02419 42.0135 7.18872C40.8359 7.60359 39.4458 7.57164 38.9434 7.11816C38.7181 6.91483 38.4639 6.32066 38.3786 5.79779C38.2932 5.27492 38.0544 4.40032 37.8479 3.85424C37.6414 3.30816 37.5452 2.7931 37.6342 2.70967C37.7231 2.62624 38.3438 2.51535 39.0134 2.46326L40.2309 2.36855L40.2338 3.18531C40.2397 4.77273 40.5078 5.58081 41.073 5.71388C41.7194 5.86607 42.0744 5.68009 42.0744 5.18917C42.0744 4.62786 41.3613 2.75586 41.0813 2.58208C40.9044 2.47225 40.9055 2.32464 41.0855 2.05393C41.2696 1.77696 41.6247 1.67821 42.4367 1.67821H43.5382L43.7786 2.73451C43.9108 3.31548 44.0822 3.93342 44.1595 4.1077C44.2368 4.28199 44.3316 4.60938 44.3702 4.83523C44.432 5.19683 44.6016 5.23886 45.7909 5.18722C46.5338 5.15497 47.1855 5.08744 47.2391 5.03715C47.4162 4.8712 46.796 4.42842 46.0619 4.19671C44.6464 3.74995 44.4351 1.99118 45.7141 1.30259C46.1435 1.07142 46.8729 0.938799 47.7149 0.938799C48.8276 0.938799 49.0803 1.00941 49.2914 1.37941C49.4296 1.62175 49.5092 1.83565 49.4682 1.85475C49.4272 1.87385 49.167 2.00831 48.89 2.15355C48.613 2.29879 48.2076 2.42538 47.9891 2.43486C47.7452 2.44544 47.8743 2.56789 48.3239 2.75235C48.7265 2.9175 49.0558 3.14741 49.0558 3.26327C49.0558 3.37913 49.21 3.47392 49.3985 3.47392C49.5869 3.47392 49.8515 3.70115 49.9864 3.97886C50.2594 4.54106 50.8331 4.86148 51.9272 5.06286C52.5551 5.17842 52.6592 5.13804 52.6592 4.77894C52.6592 4.50608 52.4297 4.28526 52.0002 4.14482C51.2901 3.91258 50.7486 3.27337 50.5189 2.39622C50.3055 1.58082 51.4519 0.727539 52.7609 0.727539C54.501 0.727539 55.1365 0.932408 55.1365 1.49336C55.1365 1.83659 55.0078 1.9951 54.7291 1.9951C54.505 1.9951 54.125 2.13254 53.8846 2.30051C53.466 2.59289 53.4789 2.61641 54.1862 2.85157C55.0502 3.13887 55.6873 4.12627 55.4883 4.86987C55.3041 5.55843 55.8661 5.54192 56.2625 4.84711C56.4282 4.55663 56.648 4.31896 56.751 4.31896C56.8539 4.31896 56.9381 4.19843 56.9381 4.05111C56.9381 3.9038 57.1915 3.4335 57.5012 3.00602C57.8108 2.57854 58.0642 2.0336 58.0642 1.79505C58.0642 1.40731 58.203 1.36132 59.3738 1.36132H60.6834L61.1777 2.6817C61.4496 3.4079 61.671 4.22105 61.6698 4.4887C61.6679 4.9376 62.7258 6.43155 63.0458 6.43156C63.2137 6.43157 63.6209 4.99866 63.8262 3.68518C63.9949 2.60588 64.1904 2.42541 65.1961 2.42085C66.6483 2.41427 66.8728 2.70105 66.2677 3.78969C66.0742 4.13766 65.808 5.20716 65.676 6.16637C65.4057 8.13099 65.3119 8.19359 63.5818 7.56404L63.5817 7.56405Z" fill="#F4E8C1"/>
</svg>
