<svg width="71" height="70" viewBox="0 0 71 70" fill="none" xmlns="http://www.w3.org/2000/svg">
<path d="M53.9 70.0004C39.6105 69.9819 25.9116 64.2972 15.8074 54.193C5.7032 44.0888 0.0185217 30.3899 0 16.1004C0 11.8304 1.69625 7.73532 4.71558 4.71598C7.73492 1.69665 11.83 0.000400032 16.1 0.000400032C17.0042 -0.00648727 17.9069 0.0755742 18.795 0.2454C19.6536 0.372451 20.4976 0.583463 21.315 0.8754C21.8899 1.0771 22.4021 1.42537 22.8011 1.88575C23.2001 2.34614 23.4721 2.9027 23.59 3.5004L28.385 24.5004C28.5142 25.0704 28.4987 25.6637 28.3397 26.2262C28.1808 26.7887 27.8835 27.3023 27.475 27.7204C27.02 28.2104 26.985 28.2454 22.68 30.4854C26.1275 38.0484 32.1762 44.122 39.725 47.6004C42 43.2604 42.035 43.2254 42.525 42.7704C42.9431 42.3619 43.4567 42.0646 44.0192 41.9057C44.5817 41.7467 45.175 41.7312 45.745 41.8604L66.745 46.6554C67.3236 46.7896 67.8585 47.0689 68.2993 47.4669C68.7402 47.8649 69.0725 48.3685 69.265 48.9304C69.5604 49.7612 69.7829 50.616 69.93 51.4854C70.0709 52.365 70.1411 53.2545 70.14 54.1454C70.0755 58.3971 68.3315 62.4507 65.2889 65.4212C62.2463 68.3917 58.1521 70.0379 53.9 70.0004ZM16.1 7.0004C13.6894 7.00962 11.3801 7.97133 9.67551 9.67591C7.97093 11.3805 7.00922 13.6898 7 16.1004C7.00927 28.5362 11.9535 40.46 20.7469 49.2535C29.5404 58.0469 41.4642 62.9911 53.9 63.0004C56.3106 62.9912 58.6199 62.0295 60.3245 60.3249C62.0291 58.6203 62.9908 56.311 63 53.9004C63 53.5154 63 53.1304 63 52.7454L46.76 49.0004L45.745 50.9254C44.17 53.9704 43.015 56.1754 40.075 54.9854C34.2751 52.9094 29.0104 49.5675 24.6636 45.2025C20.3167 40.8375 16.9968 35.5589 14.945 29.7504C13.685 27.0204 16.065 25.7604 19.075 24.1854L21 23.2404L17.255 7.0004H16.1Z" fill="url(#paint0_linear_63_29)" fill-opacity="0.96"/>
<defs>
<linearGradient id="paint0_linear_63_29" x1="35.07" y1="0" x2="35.07" y2="70.001" gradientUnits="userSpaceOnUse">
<stop stop-color="#27213A"/>
<stop offset="0.494792" stop-color="#27213A" stop-opacity="0.71"/>
<stop offset="1" stop-color="#27213A"/>
</linearGradient>
</defs>
</svg>
